# xmcd
#
# Track frame offsets: 
#        150
#        21910
#        46973
#        77120
#        94939
#        122390
#        136626
#
# Disc length: 2211 seconds
#
# Revision: 0
# Processed by: cddbd v1.5.2PL0 Copyright (c) Steve Scherf et al.
# Submitted via: ExactAudioCopy v0.99pb4
#
DISCID=4d08a107
DTITLE=Godmoma - Godmoma Here
DYEAR=1981
DGENRE=Funk
TTITLE0=Taste Of Magic
TTITLE1=Godmoma Here
TTITLE2=Hands Up (Punk Funk)
TTITLE3=I Like It
TTITLE4=Spice (Too Nice)
TTITLE5=Be All You Can Be
TTITLE6=Godmoma Of Love
EXTD=
EXTT0=
EXTT1=
EXTT2=
EXTT3=
EXTT4=
EXTT5=
EXTT6=
PLAYORDER=
